<svg width="196" height="48" viewBox="0 0 196 48" fill="none" xmlns="http://www.w3.org/2000/svg" xmlns:xlink="http://www.w3.org/1999/xlink">
<symbol id="logo-symbol-wordmark">
<path d="M13 24.9969C18.2593 24.9969 21.1821 24.9969 23.0895 23.089C25 21.1812 25 18.2574 25 12.9984C25 7.73945 25 4.81882 23.0895 2.90786C21.179 1 18.2562 1 13 1C7.74383 1 4.8179 1 2.91049 2.90786C1 4.81572 1 7.73945 1 12.9984C1 18.2574 1 21.1781 2.91049 23.089C4.82099 24.9969 7.74383 24.9969 13 24.9969Z" fill="#4C70F0"/>
<path d="M20.8086 8.5633C19.6605 6.54704 17.7346 4.97368 15.3148 4.32637C10.5123 3.04104 5.57716 5.88735 4.29013 10.688C3.64198 13.1038 4.04321 15.5536 5.21296 17.5544C5.22839 17.5823 5.24691 17.6132 5.26235 17.6411L9.49075 24.9721C10.1914 24.9907 10.9506 24.9969 11.7685 25H11.7747C11.8488 25 11.9228 25 11.9969 25H12.0031C12.1543 25 12.3056 25 12.4599 25H12.5C12.6512 25 12.8025 25 12.9568 25C15.2963 25 17.1728 25 18.7037 24.8328C20.6173 24.6221 21.9907 24.1514 23.0525 23.0921C24.5988 21.5467 24.892 19.3322 24.9475 15.7518C22.4753 11.4654 20.8056 8.57569 20.8025 8.5664L20.8086 8.5633Z" fill="url(#gradient1)"/>
<path d="M19.321 6.64925C15.8117 3.13706 10.1234 3.13706 6.61418 6.64925C3.10492 10.1614 3.10492 15.8541 6.61418 19.3662C10.1234 22.8784 15.8117 22.8784 19.321 19.3662C22.8302 15.8541 22.8302 10.1614 19.321 6.64925ZM18.7839 10.7871C17.3025 13.367 15.8179 15.9439 14.3395 18.5238C14.0648 19.0039 13.6636 19.2919 13.1173 19.3322C12.5031 19.3755 12.0216 19.1185 11.7099 18.5827C10.7716 16.9659 9.84567 15.343 8.91357 13.7232C8.34567 12.7383 7.77777 11.7534 7.21604 10.7654C6.64814 9.77121 7.29011 8.56021 8.429 8.50137C9.03085 8.47039 9.4969 8.74914 9.80245 9.27256C10.2191 9.98801 10.6296 10.7096 11.0432 11.4313C11.3426 11.9485 11.6327 12.4719 11.9413 12.983C12.3858 13.7263 13.0401 14.1475 13.9074 14.2002C15.1389 14.2745 16.2808 13.3825 16.429 12.0693C16.4413 11.9702 16.4475 11.8742 16.4506 11.8246C16.4444 11.4003 16.3642 11.0441 16.1975 10.7066C15.7376 9.78359 16.2284 8.75224 17.2253 8.52924C18.037 8.3496 18.8796 8.94735 18.9876 9.7743C19.0339 10.1367 18.9629 10.4712 18.7839 10.784V10.7871Z" fill="white"/>
<path d="M38.076 19H40.056C40.434 19 40.65 18.784 40.74 18.496L44.592 6.94C44.61 6.886 44.628 6.814 44.628 6.778C44.628 6.562 44.448 6.4 44.25 6.4H42.666C42.324 6.4 42.144 6.634 42.108 6.796L39.066 16.066L36.024 6.796C35.97 6.634 35.808 6.4 35.466 6.4H33.882C33.666 6.4 33.504 6.562 33.504 6.778C33.504 6.814 33.522 6.886 33.54 6.94L37.392 18.496C37.482 18.784 37.698 19 38.076 19ZM49.1249 19H50.8169C51.0689 19 51.2489 18.82 51.2489 18.568V6.832C51.2489 6.58 51.0689 6.4 50.8169 6.4H49.1249C48.8729 6.4 48.6929 6.58 48.6929 6.832V18.568C48.6929 18.82 48.8729 19 49.1249 19ZM59.9038 19H61.8838C62.2618 19 62.4778 18.784 62.5678 18.496L66.4198 6.94C66.4378 6.886 66.4558 6.814 66.4558 6.778C66.4558 6.562 66.2758 6.4 66.0778 6.4H64.4938C64.1518 6.4 63.9718 6.634 63.9358 6.796L60.8938 16.066L57.8518 6.796C57.7978 6.634 57.6358 6.4 57.2938 6.4H55.7098C55.4938 6.4 55.3318 6.562 55.3318 6.778C55.3318 6.814 55.3498 6.886 55.3678 6.94L59.2198 18.496C59.3098 18.784 59.5258 19 59.9038 19ZM68.8151 19H70.3811C70.7051 19 70.8491 18.784 70.9031 18.658L71.7491 16.462H77.0951L77.9411 18.658C77.9771 18.784 78.1211 19 78.4631 19H80.0291C80.2271 19 80.3891 18.838 80.3891 18.622C80.3891 18.586 80.3891 18.514 80.3711 18.46L76.0331 6.85C75.9431 6.598 75.7631 6.4 75.4031 6.4H73.4411C73.0811 6.4 72.8831 6.598 72.8111 6.85L68.4731 18.46C68.4551 18.514 68.4371 18.586 68.4371 18.622C68.4371 18.838 68.6171 19 68.8151 19ZM72.3791 14.392L74.4131 8.83L76.4651 14.392H72.3791ZM84.6615 19H92.4735C92.7435 19 92.9235 18.82 92.9235 18.568V17.308C92.9235 17.038 92.7435 16.858 92.4735 16.858H86.7675V6.832C86.7675 6.58 86.5875 6.4 86.3355 6.4H84.6615C84.4095 6.4 84.2295 6.58 84.2295 6.832V18.568C84.2295 18.82 84.4095 19 84.6615 19ZM97.263 19H101.745C105.345 19 106.965 17.434 107.055 14.086C107.091 13.042 107.091 12.358 107.055 11.296C106.983 8.128 105.291 6.4 101.655 6.4H97.263C97.011 6.4 96.831 6.58 96.831 6.85V18.568C96.831 18.82 97.011 19 97.263 19ZM99.333 16.93V8.47H101.565C103.599 8.47 104.481 9.388 104.535 11.35C104.571 12.394 104.571 12.97 104.535 14.032C104.481 16.102 103.671 16.93 101.655 16.93H99.333ZM112.079 19H113.771C114.023 19 114.203 18.82 114.203 18.568V6.832C114.203 6.58 114.023 6.4 113.771 6.4H112.079C111.827 6.4 111.647 6.58 111.647 6.832V18.568C111.647 18.82 111.827 19 112.079 19Z" fill="currentColor"/>
<path fill-rule="evenodd" clip-rule="evenodd" d="M108.172 42.3478C109.904 42.1439 111.382 41.0739 111.586 40.1057C111.586 40.1057 111.586 40.1057 111.586 40.1056V36.6917C111.586 35.9274 111.28 35.5707 110.669 35.5707C109.955 35.5707 109.65 36.0293 109.65 36.8955V38.8318H108.223V36.8955C108.223 36.0293 107.866 35.5707 107.204 35.5707C106.592 35.5707 106.287 35.9274 106.287 36.6917V40.2076H104.758V36.5898C104.758 35.8255 104.962 35.265 105.318 34.8064C105.726 34.3478 106.236 34.144 106.847 34.144C107.561 34.144 108.121 34.4497 108.529 35.0102L108.885 35.6217L109.242 35.0102C109.599 34.4497 110.159 34.144 110.924 34.144C111.115 34.144 111.301 34.1638 111.477 34.2052C110.895 32.894 109.904 32.4624 109.904 32.4624C108.936 32.0038 107.255 31.8 105.471 31.8H105.42C103.688 31.8 101.955 32.0038 100.987 32.4624C100.987 32.4624 99 33.3287 99 36.335V38.7299C99.1019 41.6344 99.5605 44.5388 102.261 45.2522C103.535 45.6089 104.605 45.6599 105.471 45.6089C107.051 45.507 107.917 45.0484 107.917 45.0484L107.866 43.9274C107.866 43.9274 106.745 44.2841 105.471 44.2331C104.248 44.1821 102.924 44.0802 102.72 42.5516C102.669 42.4497 102.669 42.2968 102.669 42.1439C102.669 42.1439 103.892 42.4497 105.42 42.5006C106.356 42.5499 107.197 42.4563 108.08 42.358C108.111 42.3546 108.141 42.3512 108.172 42.3478ZM102.516 34.8064C102.057 34.8064 101.701 35.1631 101.701 35.6217C101.701 36.0293 102.057 36.386 102.516 36.4369C102.975 36.4369 103.331 36.0803 103.331 35.6217C103.331 35.1631 102.975 34.8064 102.516 34.8064Z" fill="#616161"/>
<path d="M117.955 38.3732C118.261 38.0675 118.414 37.6599 118.414 37.2013C118.414 36.7427 118.261 36.335 117.955 36.0293C117.65 35.7236 117.293 35.5707 116.885 35.5707C116.427 35.5707 116.07 35.7236 115.815 36.0293C115.51 36.335 115.408 36.7427 115.408 37.2013C115.408 37.6599 115.561 38.0675 115.815 38.3732C116.121 38.679 116.478 38.8318 116.885 38.8318C117.344 38.8318 117.701 38.679 117.955 38.3732ZM118.414 34.2968H119.841V40.1057H118.414V39.4433C118.006 40.0038 117.395 40.3095 116.631 40.3095C115.917 40.3095 115.255 40.0038 114.745 39.4433C114.236 38.8318 113.981 38.1185 113.981 37.2522C113.981 36.386 114.236 35.6726 114.745 35.0611C115.255 34.4497 115.917 34.1439 116.631 34.1439C117.395 34.1439 118.006 34.3987 118.414 35.0102V34.2968ZM124.58 37.0993C124.987 37.4051 125.191 37.8637 125.191 38.4242C125.191 39.0357 124.987 39.4943 124.529 39.8C124.121 40.1057 123.561 40.2586 122.949 40.2586C121.828 40.2586 121.064 39.8 120.656 38.8828L121.879 38.1694C122.032 38.679 122.389 38.9337 122.949 38.9337C123.459 38.9337 123.713 38.7809 123.713 38.4242C123.713 38.1694 123.408 37.9656 122.694 37.7618C122.439 37.7108 122.236 37.6089 122.083 37.5579C121.828 37.456 121.675 37.3541 121.471 37.2522C121.064 36.9465 120.86 36.5388 120.86 35.9783C120.86 35.4178 121.064 34.9592 121.471 34.6535C121.879 34.2968 122.389 34.1439 122.949 34.1439C123.917 34.1439 124.58 34.5516 125.038 35.3669L123.815 36.0802C123.662 35.6726 123.357 35.4688 122.949 35.4688C122.541 35.4688 122.287 35.6216 122.287 35.9274C122.287 36.1821 122.592 36.386 123.306 36.5898C123.917 36.6917 124.325 36.8446 124.58 37.0993ZM129.115 35.7236H127.892V38.1185C127.892 38.4242 127.994 38.5771 128.197 38.679C128.35 38.7299 128.656 38.7299 129.115 38.7299V40.1057C128.146 40.2076 127.484 40.1057 127.076 39.8C126.669 39.4943 126.465 38.9337 126.465 38.1185V35.7236H125.497V34.2968H126.465V33.1248L127.892 32.6662V34.2968H129.115V35.7236ZM133.65 38.3223C133.955 38.0165 134.057 37.6599 134.057 37.1503C134.057 36.6407 133.904 36.2841 133.65 35.9783C133.344 35.6726 132.987 35.5197 132.58 35.5197C132.172 35.5197 131.815 35.6726 131.51 35.9783C131.255 36.2841 131.102 36.6917 131.102 37.1503C131.102 37.6089 131.255 37.9656 131.51 38.3223C131.815 38.628 132.172 38.7809 132.58 38.7809C132.987 38.7809 133.344 38.628 133.65 38.3223ZM130.49 39.3923C129.93 38.7809 129.675 38.0675 129.675 37.2013C129.675 36.335 129.93 35.6216 130.49 35.0102C131.051 34.3987 131.764 34.093 132.58 34.093C133.395 34.093 134.108 34.3987 134.669 35.0102C135.229 35.6216 135.535 36.335 135.535 37.2013C135.535 38.0675 135.229 38.7809 134.669 39.3923C134.108 40.0038 133.446 40.2586 132.58 40.2586C131.713 40.2586 131.051 39.9528 130.49 39.3923ZM140.223 38.3732C140.529 38.0675 140.631 37.6599 140.631 37.2013C140.631 36.7427 140.478 36.335 140.223 36.0293C139.917 35.7236 139.561 35.5707 139.153 35.5707C138.694 35.5707 138.338 35.7236 138.032 36.0293C137.726 36.335 137.624 36.7427 137.624 37.2013C137.624 37.6599 137.777 38.0675 138.032 38.3732C138.338 38.679 138.694 38.8318 139.153 38.8318C139.561 38.8318 139.917 38.679 140.223 38.3732ZM140.631 31.9529H142.057V40.1057H140.631V39.4433C140.223 40.0038 139.611 40.3095 138.847 40.3095C138.134 40.3095 137.471 40.0038 136.962 39.4433C136.452 38.8318 136.197 38.1185 136.197 37.2522C136.197 36.386 136.452 35.6726 136.962 35.0611C137.471 34.4497 138.134 34.1439 138.847 34.1439C139.611 34.1439 140.223 34.3987 140.631 35.0102V31.9529ZM147.051 38.3223C147.357 38.0165 147.459 37.6599 147.459 37.1503C147.459 36.6917 147.306 36.2841 147.051 35.9783C146.745 35.6726 146.389 35.5197 145.981 35.5197C145.573 35.5197 145.217 35.6726 144.911 35.9783C144.656 36.2841 144.503 36.6917 144.503 37.1503C144.503 37.6089 144.656 37.9656 144.911 38.3223C145.217 38.628 145.573 38.7809 145.981 38.7809C146.389 38.7809 146.745 38.628 147.051 38.3223ZM143.892 39.3923C143.331 38.7809 143.076 38.0675 143.076 37.2013C143.076 36.335 143.331 35.6216 143.892 35.0102C144.452 34.3987 145.166 34.093 145.981 34.093C146.796 34.093 147.51 34.3987 148.07 35.0102C148.631 35.6216 148.936 36.335 148.936 37.2013C148.936 38.0675 148.631 38.7809 148.07 39.3923C147.51 40.0038 146.847 40.2586 145.981 40.2586C145.166 40.2586 144.452 39.9528 143.892 39.3923ZM155 36.5388V40.1057H153.573V36.7427C153.573 36.335 153.471 36.0802 153.268 35.8255C153.064 35.6216 152.809 35.5197 152.452 35.5197C151.637 35.5197 151.229 35.9783 151.229 36.9465V40.1057H149.803V34.2968H151.229V34.9592C151.586 34.3987 152.096 34.1439 152.86 34.1439C153.471 34.1439 153.981 34.3478 154.338 34.8064C154.796 35.214 155 35.7745 155 36.5388Z" fill="#616161"/>
<path d="M37.02 40C36.9533 40 36.8967 39.9767 36.85 39.93C36.8033 39.8833 36.78 39.8267 36.78 39.76V33.25C36.78 33.1767 36.8033 33.1167 36.85 33.07C36.8967 33.0233 36.9533 33 37.02 33H39.7C40.22 33 40.6733 33.0833 41.06 33.25C41.4467 33.41 41.7467 33.6567 41.96 33.99C42.1733 34.3167 42.28 34.7267 42.28 35.22C42.28 35.72 42.1733 36.1333 41.96 36.46C41.7467 36.78 41.4467 37.02 41.06 37.18C40.6733 37.34 40.22 37.42 39.7 37.42H38.21V39.76C38.21 39.8267 38.1867 39.8833 38.14 39.93C38.1 39.9767 38.0433 40 37.97 40H37.02ZM38.19 36.31H39.65C40.0367 36.31 40.3333 36.22 40.54 36.04C40.7467 35.8533 40.85 35.58 40.85 35.22C40.85 34.8867 40.7533 34.62 40.56 34.42C40.3667 34.2133 40.0633 34.11 39.65 34.11H38.19V36.31ZM45.4834 40.1C44.9501 40.1 44.5001 40.0067 44.1334 39.82C43.7734 39.6333 43.4968 39.37 43.3034 39.03C43.1168 38.69 43.0101 38.2933 42.9834 37.84C42.9768 37.72 42.9734 37.5733 42.9734 37.4C42.9734 37.2267 42.9768 37.08 42.9834 36.96C43.0101 36.5 43.1201 36.1033 43.3134 35.77C43.5134 35.43 43.7934 35.1667 44.1534 34.98C44.5201 34.7933 44.9634 34.7 45.4834 34.7C46.0034 34.7 46.4434 34.7933 46.8034 34.98C47.1701 35.1667 47.4501 35.43 47.6434 35.77C47.8434 36.1033 47.9568 36.5 47.9834 36.96C47.9901 37.08 47.9934 37.2267 47.9934 37.4C47.9934 37.5733 47.9901 37.72 47.9834 37.84C47.9568 38.2933 47.8468 38.69 47.6534 39.03C47.4668 39.37 47.1901 39.6333 46.8234 39.82C46.4634 40.0067 46.0168 40.1 45.4834 40.1ZM45.4834 39.11C45.8368 39.11 46.1101 39 46.3034 38.78C46.4968 38.5533 46.6034 38.2233 46.6234 37.79C46.6301 37.69 46.6334 37.56 46.6334 37.4C46.6334 37.24 46.6301 37.11 46.6234 37.01C46.6034 36.5833 46.4968 36.2567 46.3034 36.03C46.1101 35.8033 45.8368 35.69 45.4834 35.69C45.1301 35.69 44.8568 35.8033 44.6634 36.03C44.4701 36.2567 44.3634 36.5833 44.3434 37.01C44.3368 37.11 44.3334 37.24 44.3334 37.4C44.3334 37.56 44.3368 37.69 44.3434 37.79C44.3634 38.2233 44.4701 38.5533 44.6634 38.78C44.8568 39 45.1301 39.11 45.4834 39.11ZM50.3749 40C50.2816 40 50.2116 39.9767 50.1649 39.93C50.1183 39.8833 50.0783 39.8233 50.0449 39.75L48.6149 35.11C48.6083 35.0767 48.6049 35.0467 48.6049 35.02C48.6049 34.96 48.6249 34.91 48.6649 34.87C48.7116 34.8233 48.7616 34.8 48.8149 34.8H49.5549C49.6349 34.8 49.6983 34.8233 49.7449 34.87C49.7916 34.91 49.8183 34.95 49.8249 34.99L50.8049 38.3L51.8449 35.02C51.8583 34.9733 51.8883 34.9267 51.9349 34.88C51.9816 34.8267 52.0516 34.8 52.1449 34.8H52.6449C52.7383 34.8 52.8083 34.8267 52.8549 34.88C52.9016 34.9267 52.9316 34.9733 52.9449 35.02L53.9849 38.3L54.9649 34.99C54.9716 34.95 54.9949 34.91 55.0349 34.87C55.0816 34.8233 55.1449 34.8 55.2249 34.8H55.9649C56.0249 34.8 56.0749 34.8233 56.1149 34.87C56.1616 34.91 56.1849 34.96 56.1849 35.02C56.1849 35.0467 56.1783 35.0767 56.1649 35.11L54.7349 39.75C54.7149 39.8233 54.6783 39.8833 54.6249 39.93C54.5783 39.9767 54.5083 40 54.4149 40H53.7649C53.6716 40 53.5983 39.9767 53.5449 39.93C53.4916 39.8833 53.4549 39.8233 53.4349 39.75L52.3949 36.59L51.3549 39.75C51.3283 39.8233 51.2883 39.8833 51.2349 39.93C51.1883 39.9767 51.1149 40 51.0149 40H50.3749ZM59.2516 40.1C58.5116 40.1 57.9249 39.8867 57.4916 39.46C57.0582 39.0333 56.8249 38.4267 56.7916 37.64C56.7849 37.5733 56.7816 37.49 56.7816 37.39C56.7816 37.2833 56.7849 37.2 56.7916 37.14C56.8182 36.64 56.9316 36.2067 57.1316 35.84C57.3382 35.4733 57.6216 35.1933 57.9816 35C58.3416 34.8 58.7649 34.7 59.2516 34.7C59.7916 34.7 60.2449 34.8133 60.6116 35.04C60.9782 35.26 61.2549 35.57 61.4416 35.97C61.6282 36.3633 61.7216 36.82 61.7216 37.34V37.55C61.7216 37.6167 61.6982 37.6733 61.6516 37.72C61.6049 37.7667 61.5449 37.79 61.4716 37.79H58.1516C58.1516 37.79 58.1516 37.8 58.1516 37.82C58.1516 37.84 58.1516 37.8567 58.1516 37.87C58.1582 38.1033 58.2016 38.32 58.2816 38.52C58.3682 38.7133 58.4916 38.87 58.6516 38.99C58.8182 39.11 59.0149 39.17 59.2416 39.17C59.4282 39.17 59.5849 39.1433 59.7116 39.09C59.8382 39.03 59.9416 38.9633 60.0216 38.89C60.1016 38.8167 60.1582 38.7567 60.1916 38.71C60.2516 38.63 60.2982 38.5833 60.3316 38.57C60.3716 38.55 60.4282 38.54 60.5016 38.54H61.3616C61.4282 38.54 61.4816 38.56 61.5216 38.6C61.5682 38.64 61.5882 38.69 61.5816 38.75C61.5749 38.8567 61.5182 38.9867 61.4116 39.14C61.3116 39.2933 61.1649 39.4433 60.9716 39.59C60.7782 39.7367 60.5349 39.86 60.2416 39.96C59.9549 40.0533 59.6249 40.1 59.2516 40.1ZM58.1516 36.95H60.3616V36.92C60.3616 36.66 60.3182 36.4333 60.2316 36.24C60.1449 36.0467 60.0182 35.8933 59.8516 35.78C59.6849 35.6667 59.4849 35.61 59.2516 35.61C59.0182 35.61 58.8182 35.6667 58.6516 35.78C58.4849 35.8933 58.3582 36.0467 58.2716 36.24C58.1916 36.4333 58.1516 36.66 58.1516 36.92V36.95ZM63.023 40C62.9564 40 62.8997 39.9767 62.853 39.93C62.8064 39.8833 62.783 39.8267 62.783 39.76V35.05C62.783 34.9767 62.8064 34.9167 62.853 34.87C62.8997 34.8233 62.9564 34.8 63.023 34.8H63.833C63.8997 34.8 63.9564 34.8233 64.003 34.87C64.0564 34.9167 64.083 34.9767 64.083 35.05V35.46C64.2364 35.2467 64.433 35.0833 64.673 34.97C64.9197 34.8567 65.203 34.8 65.523 34.8H65.933C66.0064 34.8 66.063 34.8233 66.103 34.87C66.1497 34.9167 66.173 34.9733 66.173 35.04V35.76C66.173 35.8267 66.1497 35.8833 66.103 35.93C66.063 35.9767 66.0064 36 65.933 36H65.153C64.833 36 64.583 36.09 64.403 36.27C64.2297 36.45 64.143 36.6967 64.143 37.01V39.76C64.143 39.8267 64.1197 39.8833 64.073 39.93C64.0264 39.9767 63.9664 40 63.893 40H63.023ZM69.1246 40.1C68.3846 40.1 67.7979 39.8867 67.3646 39.46C66.9313 39.0333 66.6979 38.4267 66.6646 37.64C66.6579 37.5733 66.6546 37.49 66.6546 37.39C66.6546 37.2833 66.6579 37.2 66.6646 37.14C66.6913 36.64 66.8046 36.2067 67.0046 35.84C67.2113 35.4733 67.4946 35.1933 67.8546 35C68.2146 34.8 68.6379 34.7 69.1246 34.7C69.6646 34.7 70.1179 34.8133 70.4846 35.04C70.8513 35.26 71.1279 35.57 71.3146 35.97C71.5013 36.3633 71.5946 36.82 71.5946 37.34V37.55C71.5946 37.6167 71.5713 37.6733 71.5246 37.72C71.4779 37.7667 71.4179 37.79 71.3446 37.79H68.0246C68.0246 37.79 68.0246 37.8 68.0246 37.82C68.0246 37.84 68.0246 37.8567 68.0246 37.87C68.0313 38.1033 68.0746 38.32 68.1546 38.52C68.2413 38.7133 68.3646 38.87 68.5246 38.99C68.6913 39.11 68.8879 39.17 69.1146 39.17C69.3013 39.17 69.4579 39.1433 69.5846 39.09C69.7113 39.03 69.8146 38.9633 69.8946 38.89C69.9746 38.8167 70.0313 38.7567 70.0646 38.71C70.1246 38.63 70.1713 38.5833 70.2046 38.57C70.2446 38.55 70.3013 38.54 70.3746 38.54H71.2346C71.3013 38.54 71.3546 38.56 71.3946 38.6C71.4413 38.64 71.4613 38.69 71.4546 38.75C71.4479 38.8567 71.3913 38.9867 71.2846 39.14C71.1846 39.2933 71.0379 39.4433 70.8446 39.59C70.6513 39.7367 70.4079 39.86 70.1146 39.96C69.8279 40.0533 69.4979 40.1 69.1246 40.1ZM68.0246 36.95H70.2346V36.92C70.2346 36.66 70.1913 36.4333 70.1046 36.24C70.0179 36.0467 69.8913 35.8933 69.7246 35.78C69.5579 35.6667 69.3579 35.61 69.1246 35.61C68.8913 35.61 68.6913 35.6667 68.5246 35.78C68.3579 35.8933 68.2313 36.0467 68.1446 36.24C68.0646 36.4333 68.0246 36.66 68.0246 36.92V36.95ZM74.5861 40.1C74.2394 40.1 73.9328 40.0433 73.6661 39.93C73.4061 39.81 73.1894 39.6433 73.0161 39.43C72.8428 39.2167 72.7094 38.9667 72.6161 38.68C72.5228 38.3867 72.4694 38.0667 72.4561 37.72C72.4494 37.6 72.4461 37.4933 72.4461 37.4C72.4461 37.3 72.4494 37.19 72.4561 37.07C72.4694 36.7367 72.5194 36.4267 72.6061 36.14C72.6994 35.8533 72.8328 35.6033 73.0061 35.39C73.1861 35.17 73.4061 35 73.6661 34.88C73.9328 34.76 74.2394 34.7 74.5861 34.7C74.9461 34.7 75.2494 34.7633 75.4961 34.89C75.7494 35.01 75.9594 35.1667 76.1261 35.36V33.14C76.1261 33.0733 76.1461 33.0167 76.1861 32.97C76.2328 32.9233 76.2928 32.9 76.3661 32.9H77.2161C77.2828 32.9 77.3394 32.9233 77.3861 32.97C77.4328 33.0167 77.4561 33.0733 77.4561 33.14V39.76C77.4561 39.8267 77.4328 39.8833 77.3861 39.93C77.3394 39.9767 77.2828 40 77.2161 40H76.4261C76.3528 40 76.2928 39.9767 76.2461 39.93C76.2061 39.8833 76.1861 39.8267 76.1861 39.76V39.39C76.0194 39.5967 75.8061 39.7667 75.5461 39.9C75.2928 40.0333 74.9728 40.1 74.5861 40.1ZM74.9561 39.03C75.2361 39.03 75.4594 38.9667 75.6261 38.84C75.7928 38.7133 75.9161 38.5533 75.9961 38.36C76.0761 38.16 76.1194 37.9567 76.1261 37.75C76.1328 37.63 76.1361 37.5033 76.1361 37.37C76.1361 37.23 76.1328 37.1 76.1261 36.98C76.1194 36.78 76.0728 36.59 75.9861 36.41C75.8994 36.2233 75.7728 36.07 75.6061 35.95C75.4394 35.83 75.2228 35.77 74.9561 35.77C74.6761 35.77 74.4528 35.8333 74.2861 35.96C74.1261 36.08 74.0094 36.24 73.9361 36.44C73.8628 36.64 73.8194 36.86 73.8061 37.1C73.7994 37.3 73.7994 37.5 73.8061 37.7C73.8194 37.94 73.8628 38.16 73.9361 38.36C74.0094 38.56 74.1261 38.7233 74.2861 38.85C74.4528 38.97 74.6761 39.03 74.9561 39.03ZM83.9541 40.1C83.5674 40.1 83.2441 40.0333 82.9841 39.9C82.7307 39.7667 82.5207 39.5967 82.3541 39.39V39.76C82.3541 39.8267 82.3307 39.8833 82.2841 39.93C82.2441 39.9767 82.1874 40 82.1141 40H81.3241C81.2574 40 81.2007 39.9767 81.1541 39.93C81.1074 39.8833 81.0841 39.8267 81.0841 39.76V33.14C81.0841 33.0733 81.1074 33.0167 81.1541 32.97C81.2007 32.9233 81.2574 32.9 81.3241 32.9H82.1741C82.2474 32.9 82.3041 32.9233 82.3441 32.97C82.3907 33.0167 82.4141 33.0733 82.4141 33.14V35.36C82.5807 35.1667 82.7874 35.01 83.0341 34.89C83.2874 34.7633 83.5941 34.7 83.9541 34.7C84.3074 34.7 84.6141 34.76 84.8741 34.88C85.1341 35 85.3507 35.17 85.5241 35.39C85.7041 35.6033 85.8407 35.8533 85.9341 36.14C86.0274 36.4267 86.0774 36.7367 86.0841 37.07C86.0907 37.19 86.0941 37.3 86.0941 37.4C86.0941 37.4933 86.0907 37.6 86.0841 37.72C86.0707 38.0667 86.0174 38.3867 85.9241 38.68C85.8307 38.9667 85.6974 39.2167 85.5241 39.43C85.3507 39.6433 85.1341 39.81 84.8741 39.93C84.6141 40.0433 84.3074 40.1 83.9541 40.1ZM83.5841 39.03C83.8707 39.03 84.0941 38.97 84.2541 38.85C84.4141 38.7233 84.5274 38.56 84.5941 38.36C84.6674 38.16 84.7107 37.94 84.7241 37.7C84.7374 37.5 84.7374 37.3 84.7241 37.1C84.7107 36.86 84.6674 36.64 84.5941 36.44C84.5274 36.24 84.4141 36.08 84.2541 35.96C84.0941 35.8333 83.8707 35.77 83.5841 35.77C83.3174 35.77 83.1007 35.83 82.9341 35.95C82.7674 36.07 82.6407 36.2233 82.5541 36.41C82.4674 36.59 82.4207 36.78 82.4141 36.98C82.4074 37.1 82.4041 37.23 82.4041 37.37C82.4041 37.5033 82.4074 37.63 82.4141 37.75C82.4274 37.9567 82.4707 38.16 82.5441 38.36C82.6241 38.5533 82.7474 38.7133 82.9141 38.84C83.0874 38.9667 83.3107 39.03 83.5841 39.03ZM87.9418 41.9C87.8885 41.9 87.8418 41.88 87.8018 41.84C87.7618 41.8 87.7418 41.7533 87.7418 41.7C87.7418 41.6733 87.7418 41.6467 87.7418 41.62C87.7485 41.6 87.7618 41.5733 87.7818 41.54L88.5618 39.69L86.6418 35.16C86.6151 35.0933 86.6018 35.0467 86.6018 35.02C86.6085 34.96 86.6318 34.91 86.6718 34.87C86.7118 34.8233 86.7618 34.8 86.8218 34.8H87.6318C87.7118 34.8 87.7718 34.82 87.8118 34.86C87.8518 34.9 87.8818 34.9433 87.9018 34.99L89.2318 38.26L90.6018 34.99C90.6218 34.9367 90.6518 34.8933 90.6918 34.86C90.7318 34.82 90.7918 34.8 90.8718 34.8H91.6718C91.7251 34.8 91.7718 34.82 91.8118 34.86C91.8585 34.9 91.8818 34.9467 91.8818 35C91.8818 35.04 91.8685 35.0933 91.8418 35.16L89.0118 41.71C88.9851 41.7633 88.9518 41.8067 88.9118 41.84C88.8718 41.88 88.8118 41.9 88.7318 41.9H87.9418Z" fill="#616161"/>
<path d="M131.472 19.18C130.5 19.18 129.672 19.024 128.988 18.712C128.316 18.4 127.8 17.998 127.44 17.506C127.08 17.014 126.888 16.492 126.864 15.94C126.864 15.844 126.9 15.76 126.972 15.688C127.044 15.616 127.134 15.58 127.242 15.58H127.602C127.722 15.58 127.812 15.616 127.872 15.688C127.944 15.76 127.986 15.844 127.998 15.94C128.046 16.276 128.196 16.612 128.448 16.948C128.7 17.272 129.072 17.548 129.564 17.776C130.056 17.992 130.692 18.1 131.472 18.1C132.648 18.1 133.506 17.89 134.046 17.47C134.586 17.038 134.856 16.462 134.856 15.742C134.856 15.262 134.712 14.878 134.424 14.59C134.148 14.29 133.722 14.026 133.146 13.798C132.57 13.558 131.832 13.294 130.932 13.006C130.08 12.73 129.378 12.448 128.826 12.16C128.274 11.86 127.866 11.5 127.602 11.08C127.35 10.66 127.224 10.12 127.224 9.46C127.224 8.848 127.386 8.302 127.71 7.822C128.034 7.33 128.502 6.94 129.114 6.652C129.738 6.364 130.494 6.22 131.382 6.22C132.09 6.22 132.708 6.316 133.236 6.508C133.764 6.7 134.202 6.958 134.55 7.282C134.898 7.594 135.162 7.936 135.342 8.308C135.522 8.668 135.618 9.022 135.63 9.37C135.63 9.454 135.6 9.538 135.54 9.622C135.48 9.694 135.384 9.73 135.252 9.73H134.892C134.832 9.73 134.754 9.706 134.658 9.658C134.574 9.61 134.52 9.514 134.496 9.37C134.424 8.77 134.106 8.278 133.542 7.894C132.99 7.498 132.27 7.3 131.382 7.3C130.494 7.3 129.768 7.474 129.204 7.822C128.64 8.17 128.358 8.716 128.358 9.46C128.358 9.94 128.484 10.336 128.736 10.648C128.988 10.948 129.384 11.218 129.924 11.458C130.464 11.686 131.16 11.938 132.012 12.214C132.912 12.502 133.656 12.79 134.244 13.078C134.832 13.366 135.27 13.72 135.558 14.14C135.846 14.548 135.99 15.082 135.99 15.742C135.99 16.474 135.804 17.098 135.432 17.614C135.072 18.118 134.556 18.508 133.884 18.784C133.212 19.048 132.408 19.18 131.472 19.18ZM143.756 19.18C142.76 19.18 141.914 19.006 141.218 18.658C140.522 18.298 139.988 17.752 139.616 17.02C139.244 16.276 139.04 15.34 139.004 14.212C138.992 13.672 138.986 13.168 138.986 12.7C138.986 12.232 138.992 11.728 139.004 11.188C139.04 10.072 139.256 9.148 139.652 8.416C140.048 7.672 140.594 7.12 141.29 6.76C141.998 6.4 142.82 6.22 143.756 6.22C144.692 6.22 145.508 6.4 146.204 6.76C146.912 7.12 147.464 7.672 147.86 8.416C148.268 9.148 148.484 10.072 148.508 11.188C148.532 11.728 148.544 12.232 148.544 12.7C148.544 13.168 148.532 13.672 148.508 14.212C148.484 15.34 148.28 16.276 147.896 17.02C147.524 17.752 146.99 18.298 146.294 18.658C145.598 19.006 144.752 19.18 143.756 19.18ZM143.756 18.1C144.788 18.1 145.634 17.788 146.294 17.164C146.966 16.54 147.326 15.526 147.374 14.122C147.398 13.582 147.41 13.108 147.41 12.7C147.41 12.292 147.398 11.818 147.374 11.278C147.35 10.342 147.176 9.58 146.852 8.992C146.54 8.404 146.114 7.978 145.574 7.714C145.046 7.438 144.44 7.3 143.756 7.3C143.084 7.3 142.478 7.438 141.938 7.714C141.41 7.978 140.984 8.404 140.66 8.992C140.348 9.58 140.174 10.342 140.138 11.278C140.126 11.818 140.12 12.292 140.12 12.7C140.12 13.108 140.126 13.582 140.138 14.122C140.186 15.526 140.546 16.54 141.218 17.164C141.89 17.788 142.736 18.1 143.756 18.1ZM156.574 19.18C155.482 19.18 154.588 18.97 153.892 18.55C153.208 18.118 152.698 17.536 152.362 16.804C152.026 16.072 151.84 15.238 151.804 14.302C151.792 13.81 151.786 13.282 151.786 12.718C151.786 12.154 151.792 11.614 151.804 11.098C151.84 10.162 152.026 9.328 152.362 8.596C152.698 7.852 153.208 7.27 153.892 6.85C154.588 6.43 155.482 6.22 156.574 6.22C157.426 6.22 158.152 6.34 158.752 6.58C159.352 6.82 159.838 7.138 160.21 7.534C160.594 7.918 160.876 8.338 161.056 8.794C161.248 9.238 161.356 9.676 161.38 10.108C161.392 10.216 161.356 10.306 161.272 10.378C161.2 10.438 161.11 10.468 161.002 10.468H160.642C160.546 10.468 160.462 10.444 160.39 10.396C160.318 10.336 160.27 10.234 160.246 10.09C160.018 9.022 159.586 8.29 158.95 7.894C158.326 7.498 157.534 7.3 156.574 7.3C155.482 7.3 154.612 7.612 153.964 8.236C153.328 8.848 152.986 9.832 152.938 11.188C152.902 12.172 152.902 13.18 152.938 14.212C152.986 15.568 153.328 16.558 153.964 17.182C154.612 17.794 155.482 18.1 156.574 18.1C157.534 18.1 158.326 17.902 158.95 17.506C159.586 17.11 160.018 16.378 160.246 15.31C160.27 15.166 160.318 15.07 160.39 15.022C160.462 14.962 160.546 14.932 160.642 14.932H161.002C161.11 14.932 161.2 14.968 161.272 15.04C161.356 15.1 161.392 15.184 161.38 15.292C161.356 15.724 161.248 16.168 161.056 16.624C160.876 17.068 160.594 17.488 160.21 17.884C159.838 18.268 159.352 18.58 158.752 18.82C158.152 19.06 157.426 19.18 156.574 19.18ZM165.329 19C165.209 19 165.113 18.964 165.041 18.892C164.969 18.82 164.933 18.724 164.933 18.604V6.796C164.933 6.676 164.969 6.58 165.041 6.508C165.113 6.436 165.209 6.4 165.329 6.4H165.671C165.791 6.4 165.887 6.436 165.959 6.508C166.031 6.58 166.067 6.676 166.067 6.796V18.604C166.067 18.724 166.031 18.82 165.959 18.892C165.887 18.964 165.791 19 165.671 19H165.329ZM169.451 19C169.355 19 169.271 18.964 169.199 18.892C169.127 18.82 169.091 18.736 169.091 18.64C169.091 18.58 169.103 18.514 169.127 18.442L173.681 6.76C173.729 6.64 173.789 6.55 173.861 6.49C173.945 6.43 174.059 6.4 174.203 6.4H174.815C174.959 6.4 175.067 6.43 175.139 6.49C175.223 6.55 175.289 6.64 175.337 6.76L179.891 18.442C179.915 18.514 179.927 18.58 179.927 18.64C179.927 18.736 179.891 18.82 179.819 18.892C179.747 18.964 179.663 19 179.567 19H179.207C179.087 19 178.997 18.97 178.937 18.91C178.877 18.838 178.835 18.778 178.811 18.73L177.695 15.85H171.323L170.207 18.73C170.195 18.778 170.153 18.838 170.081 18.91C170.021 18.97 169.931 19 169.811 19H169.451ZM171.755 14.77H177.263L174.509 7.678L171.755 14.77ZM183.354 19C183.234 19 183.138 18.964 183.066 18.892C182.994 18.82 182.958 18.724 182.958 18.604V6.796C182.958 6.676 182.994 6.58 183.066 6.508C183.138 6.436 183.234 6.4 183.354 6.4H183.696C183.816 6.4 183.912 6.436 183.984 6.508C184.056 6.58 184.092 6.676 184.092 6.796V17.92H190.302C190.434 17.92 190.536 17.956 190.608 18.028C190.68 18.1 190.716 18.202 190.716 18.334V18.604C190.716 18.724 190.68 18.82 190.608 18.892C190.536 18.964 190.434 19 190.302 19H183.354Z" fill="currentColor"/>
<defs>
<linearGradient id="gradient1" x1="8.50309" y1="5.21216" x2="20.0011" y2="25.0583" gradientUnits="userSpaceOnUse">
<stop stop-opacity="0.2"/>
<stop offset="0.79" stop-opacity="0.05"/>
</linearGradient>
</defs>
</symbol>
<use xlink:href="#logo-symbol-wordmark"/>
</svg>
